<svg xmlns="http://www.w3.org/2000/svg" xmlns:xlink="http://www.w3.org/1999/xlink" width="0" height="0" style="position:absolute">
	
		<symbol id="icon-close" viewBox="0 0 24 24">
			<path fill="#fff" d="M4.045 2.984l16.97 16.97-1.06 1.061-16.97-16.97z"></path><path fill="#fff" d="M21.015 4.046l-16.97 16.97-1.06-1.06 16.97-16.971z"></path>
		</symbol>
	
		<symbol id="icon-link-button" viewBox="0 0 16 16">
			<path d="M1.106 13.834a.75.75 0 0 0 1.06 1.06l-1.06-1.06zM15.114 1.636a.75.75 0 0 0-.75-.75h-6.75a.75.75 0 1 0 0 1.5h6v6a.75.75 0 0 0 1.5 0v-6.75zM2.166 14.894L14.894 2.166l-1.06-1.06L1.106 13.834l1.06 1.06z"></path>
		</symbol>
	
		<symbol id="icon-list-special-project" viewBox="0 0 20 13">
			<path d="M1 5.75a.75.75 0 0 0 0 1.5v-1.5zm18.53 1.28a.75.75 0 0 0 0-1.06l-4.773-4.773a.75.75 0 0 0-1.06 1.06L17.939 6.5l-4.242 4.243a.75.75 0 0 0 1.06 1.06L19.53 7.03zM1 7.25h18v-1.5H1v1.5z" fill="#408054"></path>
		</symbol>
	
		<symbol id="icon-menu-close" viewBox="0 0 40 40">
			<rect x=".5" y=".5" width="39" height="39" rx="19.5" stroke="#CCC"></rect><path fill="#050505" d="M14.697 13.99l11.314 11.313-.707.707L13.99 14.697z"></path><path fill="#050505" d="M26.01 14.697L14.697 26.011l-.707-.707L25.303 13.99z"></path>
		</symbol>
	
		<symbol id="icon-menu-open" viewBox="0 0 40 40">
			<rect x=".5" y=".5" width="39" height="39" rx="19.5" stroke="#CCC"></rect><path d="M13 14.4a1.4 1.4 0 1 1 2.8 0 1.4 1.4 0 0 1-2.8 0zM18.6 14.4a1.4 1.4 0 1 1 2.8 0 1.4 1.4 0 0 1-2.8 0zM24.2 14.4a1.4 1.4 0 1 1 2.8 0 1.4 1.4 0 0 1-2.8 0zM13 20a1.4 1.4 0 1 1 2.8 0 1.4 1.4 0 0 1-2.8 0zM18.6 20a1.4 1.4 0 1 1 2.8 0 1.4 1.4 0 0 1-2.8 0zM24.2 20a1.4 1.4 0 1 1 2.8 0 1.4 1.4 0 0 1-2.8 0zM13 25.6a1.4 1.4 0 1 1 2.8 0 1.4 1.4 0 0 1-2.8 0zM18.6 25.6a1.4 1.4 0 1 1 2.8 0 1.4 1.4 0 0 1-2.8 0zM24.2 25.6a1.4 1.4 0 1 1 2.8 0 1.4 1.4 0 0 1-2.8 0z" fill="#050505"></path>
		</symbol>
	
		<symbol id="icon-phone" viewBox="0 0 40 40">
			<rect x=".5" y=".5" width="39" height="39" rx="19.5" stroke="#CCC"></rect><path d="M17.512 13.684l1.093 2.625c.165.492.055.911-.328 1.257l-1.34 1.094a9.488 9.488 0 0 0 1.805 2.598 9.488 9.488 0 0 0 2.598 1.805l1.094-1.34c.346-.383.765-.492 1.257-.328l2.625 1.093c.274.11.465.283.575.52.109.255.136.52.082.793l-.657 2.406c-.182.492-.537.756-1.066.793-2.279-.018-4.338-.574-6.18-1.668a12.422 12.422 0 0 1-4.402-4.402c-1.094-1.841-1.65-3.901-1.668-6.18.037-.529.3-.884.793-1.066l2.406-.657c.274-.054.538-.027.793.082.237.11.41.301.52.575z" fill="#050505"></path>
		</symbol>
	
		<symbol id="icon-phone-action" viewBox="0 0 12 8">
			<path d="M1.745.788A1.022 1.022 0 1 0 .299 2.234l4.978 4.978c.4.399 1.047.399 1.446 0L11.7 2.234A1.022 1.022 0 1 0 10.255.788L6 5.043 1.745.788z" fill="#050505"></path>
		</symbol>
	
		<symbol id="icon-phone-messenger-tg" viewBox="0 0 14 13">
			<path fill-rule="evenodd" clip-rule="evenodd" d="M10.724 12.288c.188.133.43.166.646.084a.677.677 0 0 0 .422-.49C12.299 9.5 13.528 3.47 13.99 1.303a.456.456 0 0 0-.152-.442.467.467 0 0 0-.465-.082C10.928 1.684 3.395 4.511.316 5.65A.482.482 0 0 0 0 6.116a.483.483 0 0 0 .346.446c1.38.413 3.193.987 3.193.987s.847 2.558 1.289 3.86a.511.511 0 0 0 .351.335.506.506 0 0 0 .473-.12l1.806-1.706s2.084 1.528 3.266 2.37zM4.3 7.226l.98 3.23.217-2.045 5.942-5.359a.162.162 0 0 0 .019-.22.166.166 0 0 0-.22-.037L4.301 7.226z" fill="#408054"></path>
		</symbol>
	
		<symbol id="icon-phone-messenger-wh" viewBox="0 0 14 14">
			<path d="M.033 14l.984-3.595a6.922 6.922 0 0 1-.925-3.469C.093 3.112 3.205 0 7.029 0c1.856 0 3.598.723 4.908 2.035a6.897 6.897 0 0 1 2.03 4.908c-.002 3.825-3.114 6.937-6.938 6.937a6.942 6.942 0 0 1-3.318-.845L.033 14zm3.848-2.22c.978.58 1.911.927 3.146.928a5.777 5.777 0 0 0 5.768-5.766 5.764 5.764 0 0 0-5.764-5.77 5.775 5.775 0 0 0-5.768 5.765c0 1.298.38 2.27 1.018 3.286L1.7 12.351l2.182-.572zm6.643-3.188c-.043-.072-.159-.116-.333-.203-.173-.086-1.025-.506-1.184-.564-.159-.057-.275-.087-.39.087a10.18 10.18 0 0 1-.55.68c-.1.115-.202.13-.375.043-.173-.087-.732-.27-1.394-.86a5.218 5.218 0 0 1-.965-1.201c-.1-.174-.01-.268.076-.354.078-.077.173-.202.26-.304.088-.1.117-.173.175-.289.058-.115.03-.217-.014-.303-.044-.087-.39-.94-.535-1.287-.14-.338-.284-.293-.39-.298l-.332-.006a.635.635 0 0 0-.462.217c-.159.174-.607.593-.607 1.446 0 .854.621 1.678.708 1.794.087.115 1.222 1.866 2.96 2.617.414.178.737.285.989.365.415.132.793.113 1.092.069.333-.05 1.025-.42 1.17-.824.145-.406.145-.753.1-.825z" fill="#408054"></path>
		</symbol>
	
		<symbol id="icon-slider-next" viewBox="0 0 26 12">
			<path d="M1 5.25a.75.75 0 0 0 0 1.5v-1.5zm24.53 1.28a.75.75 0 0 0 0-1.06L20.757.697a.75.75 0 0 0-1.06 1.06L23.939 6l-4.242 4.243a.75.75 0 0 0 1.06 1.06L25.53 6.53zM1 6.75h24v-1.5H1v1.5z" fill="#595857"></path>
		</symbol>
	
		<symbol id="icon-slider-prev" viewBox="0 0 26 12">
			<path d="M25 6.75a.75.75 0 0 0 0-1.5v1.5zM.47 5.47a.75.75 0 0 0 0 1.06l4.773 4.773a.75.75 0 1 0 1.06-1.06L2.061 6l4.242-4.243a.75.75 0 0 0-1.06-1.06L.47 5.47zM25 5.25H1v1.5h24v-1.5z" fill="#595857"></path>
		</symbol>
	
</svg>
