<svg width="20" height="12" viewBox="0 0 20 12" fill="none" xmlns="http://www.w3.org/2000/svg">
<path d="M1 5.25005C0.585786 5.25005 0.25 5.58583 0.25 6.00005C0.25 6.41426 0.585786 6.75005 1 6.75005V5.25005ZM19.5303 6.53038C19.8232 6.23748 19.8232 5.76261 19.5303 5.46972L14.7574 0.696745C14.4645 0.403852 13.9896 0.403852 13.6967 0.696745C13.4038 0.989638 13.4038 1.46451 13.6967 1.75741L17.9393 6.00005L13.6967 10.2427C13.4038 10.5356 13.4038 11.0105 13.6967 11.3033C13.9896 11.5962 14.4645 11.5962 14.7574 11.3033L19.5303 6.53038ZM1 6.75005L19 6.75005V5.25005L1 5.25005V6.75005Z" fill="#408054"/>
</svg>
