<svg width="54" height="13" viewBox="0 0 54 13" fill="none" xmlns="http://www.w3.org/2000/svg">
<g clip-path="url(#clip0_126_1044)">
<path d="M13.9406 7.38601V1.05029H16.2158V7.30671C16.2158 8.77676 17.0697 9.78731 18.6974 9.78731C20.3251 9.78731 21.1618 8.77576 21.1618 7.30671V1.05029H23.4533V7.37075C23.4533 9.99369 21.9039 11.7789 18.6974 11.7789C15.4889 11.7789 13.9406 9.97742 13.9406 7.38601Z" fill="#807D7C"/>
<path d="M28.8599 10.1029L30.0758 8.39698C30.8189 9.17166 31.9718 9.81825 33.4257 9.81825C34.6588 9.81825 35.2587 9.24995 35.2587 8.6491C35.2587 6.78459 29.1913 8.06453 29.1913 4.09862C29.1913 2.34492 30.7081 0.891113 33.1887 0.891113C34.8641 0.891113 36.2539 1.39638 37.2969 2.36118L36.0485 4.00408C35.1966 3.21414 34.058 2.8512 32.9834 2.8512C32.0196 2.8512 31.4828 3.27717 31.4828 3.90952C31.4828 5.58393 37.5338 4.46258 37.5338 8.39698C37.5338 10.3245 36.1594 11.7783 33.3158 11.7783C31.2937 11.7783 29.84 11.0982 28.8599 10.1029Z" fill="#807D7C"/>
<path d="M42.7975 6.28454C42.7975 3.08212 45.1388 0.788574 48.3412 0.788574C51.5589 0.788574 53.9002 3.08212 53.9002 6.28454C53.9002 9.48595 51.5589 11.7794 48.3412 11.7794C45.1388 11.7794 42.7975 9.48595 42.7975 6.28454ZM51.5741 6.28454C51.5741 4.29395 50.3003 2.79644 48.3412 2.79644C46.3822 2.79644 45.1235 4.29395 45.1235 6.28454C45.1235 8.25988 46.3822 9.77264 48.3412 9.77264C50.3003 9.77264 51.5741 8.25988 51.5741 6.28454Z" fill="#807D7C"/>
<path d="M6.16289 7.5751C7.30051 7.30671 8.47066 6.31142 8.47066 4.44689C8.47066 2.48782 7.12768 1.05029 4.93071 1.05029H0V3.02461H2.24373H2.41046H4.59928C5.50003 3.02461 6.17915 3.56139 6.17915 4.44689C6.17915 5.33137 5.49902 5.86918 4.59928 5.86918H2.41046H2.24373H0.00101647V11.5888H2.24475V7.84451H3.88865L5.95752 11.5898H8.53369L6.16289 7.5751Z" fill="#807D7C"/>
</g>
<defs>
<clipPath id="clip0_126_1044">
<rect width="54" height="11.4231" fill="white" transform="translate(0 0.788574)"/>
</clipPath>
</defs>
</svg>
