<svg width="138" height="44" viewBox="0 0 138 44" fill="none" xmlns="http://www.w3.org/2000/svg">
<g clip-path="url(#clip0_2605_98)">
<path d="M70.7424 2.76205C75.3651 2.76205 80.0289 5.89074 80.0289 12.8807C80.0289 19.8706 74.8364 22.7913 69.9762 22.7913C69.208 22.7913 68.4761 22.7144 67.9138 22.5743C67.7538 22.5338 67.5897 22.5132 67.4249 22.5132C67.0068 22.5132 66.6189 22.6409 66.2921 22.8675V6.01912C66.2921 3.78572 66.5983 3.26874 66.7329 3.1479C66.8915 3.00441 67.416 2.82522 69.0171 2.78402H69.0446C69.543 2.76274 70.0984 2.76274 70.7417 2.76274L70.7424 2.76205ZM88.0817 11.4801C88.0817 21.9866 79.3588 27.4839 70.7424 27.4839C69.578 27.4839 68.209 27.4359 66.8723 27.0802C66.6629 27.0301 66.4686 26.9491 66.2928 26.842V38.0296C66.2928 40.1957 66.6553 40.4161 66.9203 40.5775C67.9522 41.2057 70.8145 41.2867 73.1935 41.2867C74.3723 41.2867 75.2607 42.265 75.2607 43.562C75.2607 43.6766 75.2511 43.7878 75.2381 43.897H137.176L94.5718 0.20665H81.7378C85.8133 2.40847 88.0817 6.29444 88.0817 11.4801ZM33.8594 0.20665C33.9164 0.295217 33.9733 0.384471 34.0283 0.471665C34.3819 1.0319 34.8213 1.72877 35.5964 2.67966L58.8758 31.6157V5.877C58.8758 4.44551 58.7392 3.64086 58.4591 3.41841C57.8109 2.90486 55.3215 2.90486 54.5031 2.90486C53.5041 2.90486 52.4935 2.12354 52.4935 0.629575C52.4935 0.481276 52.5058 0.341217 52.5251 0.207336H33.8594V0.20665Z" fill="url(#paint0_linear_2605_98)"/>
<path d="M23.0941 0.208025C24.3855 0.19704 25.0968 0.26295 25.2829 0.273935V1.17128C25.1407 1.16029 24.5166 1.12734 23.0941 1.05113C20.8181 0.93098 17.031 0.854084 14.4049 1.36832C13.8797 1.4665 11.7129 1.70749 10.8588 2.73596C9.80832 4.0274 10.1035 6.18322 10.1035 6.74139V37.4666C10.1035 38.0248 9.80832 40.1806 10.8588 41.4721C11.7122 42.5005 13.879 42.7415 14.4049 42.8397C17.031 43.3539 20.6101 43.2599 22.886 43.1397C24.3086 43.0628 25.1407 43.0477 25.2829 43.0367V43.9341C25.0968 43.9451 24.1775 43.9931 22.886 43.9821C18.7385 43.9602 10.4537 43.792 8.21067 43.792C5.20145 43.792 2.39957 44 0.15587 44C-0.05216 44 -0.05216 43.1576 0.15587 43.1576C5.4747 43.1576 6.39402 42.3261 6.39402 38.3317V5.87701C6.39402 1.88256 5.4747 1.05044 0.15587 1.05044C-0.05216 1.05044 -0.05216 0.208025 0.15587 0.208025C2.39957 0.208025 5.20076 0.416055 8.21067 0.416055C10.4544 0.416055 18.9465 0.229995 23.0941 0.208025ZM42.5198 21.8974C42.5198 21.3282 42.4978 20.77 42.4539 20.2118C41.8195 11.8728 36.4238 5.0442 27.9426 1.89217V2.98656C28.0085 3.04149 28.0737 3.09572 28.1397 3.15065V3.8839C28.6759 4.21208 29.1901 4.57322 29.6824 4.96731V4.61716C30.0325 4.96731 30.4486 5.45957 30.8646 5.95253L30.9086 6.00745C32.2549 7.24396 33.4255 8.6885 34.3998 10.2971L34.4327 10.352C36.5336 13.8542 37.7159 18.1219 37.8141 22.7837C37.661 29.9734 34.936 36.5837 30.2522 40.6331C29.53 41.2572 28.7528 41.8256 27.9433 42.3186V43.6862C29.1359 43.2482 30.2632 42.723 31.3246 42.1435C38.3503 38.3132 42.5198 31.5828 42.5198 23.6817C42.5198 23.3755 42.5198 23.0796 42.4978 22.7844C42.5198 22.5002 42.5198 22.2043 42.5198 21.898V21.8974Z" fill="#B3B3B3"/>
<path d="M34.1588 3.85095C31.992 1.19187 32.1341 0.20665 30.9415 0.20665C30.3833 0.20665 29.1139 0.348769 27.7895 0.348769C27.0562 0.348769 26.1809 0.304829 25.2835 0.27256C25.1524 0.261575 25.0316 0.261575 24.9004 0.25059C24.6924 0.239605 24.4844 0.239605 24.2873 0.22862C23.9811 0.217635 23.6742 0.20665 23.379 0.20665H23.0947C22.8215 0.20665 22.8215 1.04907 23.0947 1.04907C23.2588 1.04907 23.4229 1.04907 23.587 1.07104C23.6632 1.07104 23.7401 1.08202 23.806 1.09301C25.0755 1.21316 26.4212 1.7274 27.9426 2.98656C28.0085 3.04148 28.0737 3.09572 28.1396 3.15065V36.6929C28.1396 41.0045 27.1654 42.7889 23.9701 43.0841C23.9262 43.0951 23.8829 43.0951 23.839 43.0951C23.5438 43.1281 23.2259 43.139 22.8867 43.139C22.6787 43.139 22.6787 43.9815 22.8867 43.9815C23.2588 43.9815 23.6529 43.9705 24.047 43.9705C24.4521 43.9595 24.8572 43.9485 25.2835 43.9265C26.4658 43.8826 27.7346 43.8387 29.048 43.8387C31.3569 43.8387 33.2504 43.9808 35.0012 43.9808C35.2854 43.9808 35.2854 43.1384 35.0012 43.1384C33.3596 43.1384 32.1561 42.8431 31.3239 42.1428C30.8646 41.7707 30.5035 41.2675 30.2515 40.6324C29.8574 39.6581 29.6824 38.3557 29.6824 36.6929V4.61715C30.0325 4.9673 30.4486 5.45957 30.8646 5.95253L30.9086 6.00745L34.3998 10.2971L34.4327 10.352L42.4546 20.2118L60.019 41.8147C60.5772 41.0814 60.7303 39.965 60.7303 38.3015V36.8789L34.1588 3.85095Z" fill="#909090"/>
<path d="M81.8834 12.8807C81.8834 5.25291 76.8385 0.90832 70.7425 0.90832C70.0861 0.90832 69.506 0.90832 68.9698 0.93029C67.2842 0.97423 66.1789 1.1493 65.4896 1.77271C64.7124 2.47301 64.4391 3.73148 64.4391 6.01912V38.0296C64.4391 42.2321 65.5664 43.1404 73.1942 43.1404C73.4784 43.1404 73.4784 43.9828 73.1942 43.9828C70.371 43.9828 67.1751 43.8627 63.3667 43.8407H62.6224C62.3053 43.8407 61.9874 43.8407 61.6812 43.8517C59.0111 43.8737 56.4942 43.9828 54.5024 43.9828C54.2944 43.9828 54.2944 43.1404 54.5024 43.1404C57.6325 43.1404 59.2411 42.8671 60.0183 41.816C60.5765 41.0828 60.7296 39.9664 60.7296 38.3029V5.877C60.7296 1.88256 59.8213 1.05113 54.5024 1.05113C54.2944 1.05113 54.2944 0.208709 54.5024 0.208709C55.1478 0.208709 55.8378 0.230679 56.571 0.252649C58.1577 0.307574 59.9414 0.394768 61.824 0.405753C62.065 0.416738 62.3162 0.416738 62.5572 0.416738H62.6664C62.8195 0.416738 62.9616 0.416738 63.1257 0.405753C63.2788 0.405753 63.4209 0.394768 63.5857 0.394768C65.9276 0.317873 69.1448 0.000679016 72.3628 0.000679016C80.0674 0.000679016 86.2287 3.36005 86.2287 11.4808C86.2287 21.3625 77.8237 25.6309 70.7432 25.6309C69.4847 25.6309 68.3683 25.565 67.3179 25.2807C66.9677 25.2148 67.1758 24.2955 67.46 24.3724C68.2914 24.5804 69.2107 24.6457 69.977 24.6457C76.1382 24.6457 81.8834 20.9355 81.8834 12.8814V12.8807Z" fill="#5E5E5E"/>
</g>
<defs>
<linearGradient id="paint0_linear_2605_98" x1="33.8594" y1="22.0518" x2="137.176" y2="22.0518" gradientUnits="userSpaceOnUse">
<stop stop-color="#52A36C"/>
<stop offset="1" stop-color="#1A472A"/>
</linearGradient>
<clipPath id="clip0_2605_98">
<rect width="137.176" height="44" fill="white"/>
</clipPath>
</defs>
</svg>
