<svg width="680" height="402" viewBox="0 0 680 402" fill="none" xmlns="http://www.w3.org/2000/svg">
<path opacity="0.15" d="M678.46 197.915C671.876 123.703 624.433 60.5834 552.437 33.4101C533.511 26.2622 513.025 21.4813 492.041 21.4249C406.314 21.1807 298.09 68.2291 244.185 74.7383C190.289 81.2475 134.975 26.0837 55.9533 93.1575C-23.0588 160.231 -28.6757 334.514 106.336 383.319C241.348 432.114 329.33 357.216 388.899 382.079C448.468 406.942 560.195 411.056 632.351 364.327C675.135 336.618 684.171 262.331 678.46 197.924V197.915Z" fill="#408054"/>
<path d="M615.93 401.287H643.056" stroke="#263238" stroke-width="0.939278" stroke-miterlimit="10"/>
<path d="M39.9531 401.287H610.358" stroke="#263238" stroke-width="0.939278" stroke-miterlimit="10"/>
<path d="M45.848 354.68C47.4353 355.375 51.3146 355.281 51.3146 355.281C51.3521 355.281 50.4786 352.745 50.4035 352.586C49.5487 350.801 46.8624 347.861 44.6739 348.162C43.0959 348.378 42.2224 349.956 42.5699 351.44C42.9362 352.961 44.486 354.089 45.8386 354.671L45.848 354.68Z" fill="#263238"/>
<path d="M47.1915 365.923C48.8353 366.168 52.3012 365.163 52.5736 365.078C53.1184 367.013 53.8416 368.957 54.6776 370.892C55.1566 371.991 55.6638 373.09 56.1992 374.18C55.8798 373.719 55.5981 373.306 55.5511 373.25C54.2549 371.756 50.8829 369.634 48.854 370.498C47.3888 371.118 46.9567 372.874 47.6987 374.217C48.4502 375.589 50.2536 376.265 51.7095 376.472C53.1935 376.688 56.1616 375.889 56.9412 375.673C57.1479 376.086 57.3545 376.509 57.5612 376.922C58.5662 378.923 59.5712 380.905 60.5011 382.887C60.8298 383.582 61.1304 384.286 61.431 384.981C61.1492 384.568 60.9144 384.23 60.8674 384.174C59.5806 382.68 56.1992 380.557 54.1704 381.422C52.7051 382.041 52.273 383.798 53.015 385.141C53.7665 386.512 55.5699 387.189 57.0258 387.395C58.4347 387.602 61.1868 386.888 62.1167 386.635C62.3984 387.358 62.6896 388.081 62.9338 388.795C63.0935 389.283 63.272 389.753 63.4035 390.251C63.5444 390.749 63.6759 391.237 63.8168 391.725C64.0422 392.674 64.2864 393.642 64.4836 394.571C64.6245 395.22 64.7466 395.83 64.8781 396.45C64.5588 395.755 63.9107 394.402 63.8355 394.29C62.7835 392.618 59.7779 390.007 57.6269 390.551C56.0865 390.946 55.3914 392.618 55.9174 394.045C56.4528 395.511 58.1247 396.45 59.543 396.882C61.0928 397.352 64.5306 396.92 64.9627 396.863C65.1693 397.887 65.3572 398.892 65.5262 399.841C65.6108 400.339 65.6953 400.808 65.7704 401.287H67.1418C67.0385 400.743 66.9352 400.188 66.8224 399.597C66.6158 398.554 66.381 397.446 66.118 396.3C66.381 396.196 67.8463 395.605 69.1425 394.881C70.2696 396.102 73.172 397.54 73.5477 397.718C73.1532 398.685 72.7587 399.625 72.3736 400.508C72.2609 400.771 72.1482 401.024 72.0354 401.278H73.4725C73.5101 401.193 73.5477 401.109 73.5759 401.015C73.9797 400.029 74.393 398.977 74.8063 397.878C75.2196 397.962 78.6198 398.657 80.2072 398.3C81.6443 397.972 83.3819 397.164 84.03 395.736C84.6593 394.346 84.0958 392.627 82.5835 392.12C80.4889 391.415 77.286 393.792 76.1213 395.379C76.0555 395.473 75.4168 396.572 75.0223 397.277C75.1914 396.826 75.3511 396.394 75.5202 395.933C75.8583 395.022 76.1589 394.102 76.497 393.116C76.6379 392.637 76.7882 392.148 76.9385 391.65C77.0981 391.162 77.2015 390.636 77.333 390.119C77.6147 388.926 77.8496 387.696 78.0562 386.456C78.8546 386.747 81.71 387.743 83.1847 387.63C84.6593 387.527 86.5003 386.991 87.3551 385.676C88.191 384.399 87.8904 382.614 86.4721 381.882C84.509 380.867 80.9868 382.737 79.5872 384.127C79.5027 384.211 78.6104 385.329 78.1314 385.949C78.2441 385.207 78.3662 384.455 78.4601 383.695C78.7325 381.506 78.9391 379.28 79.1552 377.054C79.2209 376.378 79.2961 375.701 79.3618 375.016C79.6436 375.119 83.0062 376.378 84.6593 376.256C86.134 376.152 87.975 375.617 88.8297 374.302C89.6657 373.024 89.3651 371.24 87.9468 370.507C85.9837 369.493 82.4614 371.362 81.0619 372.752C80.9586 372.855 79.6718 374.462 79.3712 374.884C79.5309 373.391 79.6999 371.907 79.9254 370.451C80.2353 368.441 80.658 366.478 81.2028 364.618C81.3343 364.665 84.8378 365.989 86.5379 365.877C88.0126 365.773 89.8535 365.228 90.7083 363.923C91.5442 362.645 91.2437 360.861 89.8254 360.128C87.8623 359.114 84.34 360.983 82.9405 362.373C82.8277 362.486 81.4564 364.205 81.231 364.533C81.2685 364.421 81.2873 364.308 81.3155 364.195C81.926 362.213 82.762 360.363 83.6261 358.672C84.1333 357.686 84.6687 356.775 85.2041 355.901C85.8334 356.211 88.717 357.611 90.248 357.677C91.7227 357.733 93.6107 357.404 94.6063 356.193C95.5738 355.009 95.4798 353.206 94.146 352.323C92.3051 351.102 88.5949 352.567 87.0545 353.797C86.97 353.863 86.1904 354.643 85.6362 355.206C85.8898 354.812 86.134 354.408 86.3876 354.032C87.3081 352.642 88.2474 351.421 89.0833 350.35C89.5624 349.749 90.0038 349.204 90.4265 348.707C91.2061 348.697 94.3339 348.594 95.6959 347.955C97.0296 347.326 98.5607 346.161 98.88 344.63C99.1994 343.137 98.2789 341.577 96.6915 341.408C94.4936 341.174 91.8824 344.179 91.084 345.983C91.0183 346.142 90.2105 348.697 90.248 348.697C90.248 348.697 90.2856 348.697 90.295 348.697C89.8817 349.167 89.4403 349.683 88.9706 350.247C88.1065 351.299 87.1484 352.501 86.1904 353.882C85.2323 355.253 84.2273 356.775 83.3068 358.475C82.3863 360.175 81.5034 362.007 80.8459 364.017C80.8459 364.036 80.8365 364.064 80.8271 364.083C80.8365 363.434 80.8083 361.622 80.7895 361.481C80.5359 359.527 78.8922 355.892 76.7224 355.488C75.1538 355.197 73.8295 356.427 73.7074 357.949C73.5759 359.508 74.703 361.058 75.8113 362.044C77.0512 363.153 80.4889 364.223 80.7707 364.308C80.1602 366.224 79.6812 368.244 79.3148 370.31C79.1082 371.493 78.9297 372.686 78.7701 373.889C78.7701 373.325 78.7513 372.827 78.7419 372.761C78.4883 370.808 76.8445 367.173 74.6748 366.769C73.1062 366.478 71.7818 367.708 71.6597 369.23C71.5282 370.789 72.6554 372.339 73.7637 373.325C74.8814 374.321 77.7932 375.297 78.5728 375.542C78.5165 376.002 78.4507 376.462 78.3943 376.922C78.1314 379.139 77.8777 381.356 77.5584 383.516C77.4457 384.277 77.3142 385.028 77.1733 385.77C77.1733 385.273 77.1545 384.85 77.1451 384.794C76.8915 382.84 75.2478 379.205 73.078 378.801C71.5094 378.51 70.1851 379.74 70.0629 381.262C69.9314 382.821 71.068 384.371 72.1669 385.357C73.2283 386.306 75.9147 387.226 76.8352 387.527C76.6755 388.288 76.5158 389.049 76.3185 389.781C76.1777 390.279 76.0743 390.767 75.9053 391.256C75.7456 391.744 75.5953 392.233 75.4356 392.712C75.1069 393.623 74.7687 394.571 74.4212 395.454C74.1864 396.074 73.9516 396.657 73.7167 397.239C73.8389 396.478 74.0361 394.994 74.0455 394.863C74.0737 393.548 73.6134 391.425 72.6835 389.922C72.6835 389.725 72.6835 389.537 72.646 389.34C72.4018 387.827 70.9834 386.71 69.443 387.123C67.3109 387.696 65.9489 391.444 65.855 393.416C65.855 393.529 65.9207 394.797 65.9865 395.605C65.8832 395.144 65.7798 394.684 65.6671 394.215C65.4417 393.266 65.1881 392.336 64.9251 391.322C64.7748 390.843 64.6339 390.354 64.4836 389.856C64.3427 389.368 64.1361 388.861 63.967 388.363C63.5444 387.208 63.0559 386.062 62.5487 384.906C63.3753 384.709 66.3058 383.967 67.4799 383.065C68.654 382.164 69.8939 380.698 69.8751 379.139C69.8657 377.608 68.6352 376.293 67.0479 376.462C64.85 376.697 62.9432 380.201 62.5487 382.135C62.5205 382.258 62.3984 383.676 62.3327 384.455C62.0227 383.77 61.7128 383.084 61.3652 382.398C60.379 380.417 59.327 378.453 58.2844 376.481C57.965 375.88 57.6551 375.269 57.3357 374.668C57.6269 374.602 61.1304 373.785 62.4454 372.78C63.6195 371.879 64.8593 370.413 64.8406 368.854C64.8312 367.323 63.6007 366.008 62.0133 366.177C59.8154 366.412 57.9087 369.915 57.5142 371.85C57.486 371.991 57.2982 374.039 57.2794 374.555C56.5843 373.222 55.908 371.888 55.2975 370.545C54.4427 368.694 53.7195 366.835 53.1372 364.975C53.278 364.947 56.9318 364.111 58.275 363.077C59.4491 362.176 60.6889 360.71 60.6702 359.151C60.6608 357.62 59.4303 356.305 57.8429 356.474C55.645 356.709 53.7383 360.213 53.3438 362.148C53.3156 362.298 53.1184 364.496 53.109 364.9C53.0714 364.787 53.0244 364.674 52.9963 364.571C52.4045 362.58 52.0852 360.579 51.8785 358.691C51.7564 357.592 51.7001 356.54 51.6625 355.507C52.3576 355.422 55.5323 355 56.8567 354.201C58.1153 353.441 59.5149 352.116 59.6745 350.566C59.8342 349.045 58.754 347.598 57.1573 347.598C54.95 347.598 52.6675 350.867 52.057 352.745C52.0194 352.849 51.8034 353.92 51.6531 354.709C51.6531 354.248 51.6343 353.769 51.6343 353.318C51.6343 351.646 51.747 350.115 51.8503 348.763C51.9161 347.993 51.9912 347.298 52.0664 346.65C52.7051 346.208 55.2599 344.405 56.0489 343.118C56.8191 341.859 57.4484 340.046 56.8755 338.591C56.3119 337.172 54.687 336.383 53.278 337.106C51.315 338.121 50.7983 342.075 51.1177 344.02C51.1459 344.189 51.8879 346.772 51.9255 346.743C51.9255 346.743 51.9537 346.725 51.9631 346.715C51.8785 347.335 51.794 348.011 51.7095 348.744C51.578 350.097 51.4371 351.628 51.3995 353.309C51.3525 354.981 51.3525 356.813 51.531 358.729C51.7001 360.654 51.9818 362.674 52.536 364.712C52.536 364.731 52.5548 364.759 52.5548 364.778C52.2073 364.233 51.1835 362.739 51.0895 362.627C49.8027 361.133 46.4213 359.01 44.3925 359.875C42.9272 360.494 42.4951 362.251 43.2372 363.594C43.9886 364.965 45.792 365.642 47.2479 365.848L47.1915 365.923Z" fill="#263238"/>
<path d="M85.0897 355.535C85.0897 355.535 85.7942 352.952 85.8223 352.792C86.0947 350.839 85.4748 346.903 83.4835 345.936C82.0464 345.241 80.4497 346.077 79.9237 347.514C79.3883 348.979 80.0646 350.782 80.8723 352.013C81.8116 353.469 85.0991 355.535 85.0991 355.535H85.0897Z" fill="#263238"/>
<path d="M561.606 361.734C562.95 362.326 566.246 362.251 566.246 362.251C566.284 362.251 565.542 360.1 565.476 359.969C564.753 358.456 562.471 355.958 560.611 356.211C559.268 356.39 558.526 357.733 558.826 358.992C559.136 360.278 560.46 361.237 561.606 361.734Z" fill="#263238"/>
<path d="M562.742 371.268C564.141 371.475 567.081 370.62 567.307 370.554C567.767 372.198 568.377 373.851 569.091 375.485C569.495 376.425 569.927 377.354 570.378 378.275C570.106 377.88 569.871 377.533 569.824 377.486C568.725 376.218 565.869 374.415 564.141 375.147C562.901 375.673 562.535 377.167 563.155 378.303C563.794 379.468 565.325 380.041 566.555 380.219C567.814 380.407 570.331 379.721 570.998 379.534C571.176 379.891 571.345 380.247 571.524 380.595C572.379 382.286 573.233 383.976 574.022 385.658C574.304 386.249 574.558 386.841 574.811 387.433C574.577 387.085 574.37 386.794 574.332 386.747C573.233 385.479 570.378 383.676 568.65 384.408C567.41 384.934 567.044 386.428 567.663 387.564C568.302 388.729 569.833 389.302 571.064 389.481C572.266 389.659 574.595 389.048 575.384 388.832C575.629 389.443 575.873 390.063 576.079 390.673C576.211 391.087 576.371 391.481 576.474 391.913C576.596 392.336 576.709 392.749 576.821 393.163C577.009 393.961 577.216 394.787 577.385 395.576C577.507 396.121 577.61 396.647 577.723 397.173C577.451 396.581 576.897 395.436 576.84 395.342C575.948 393.923 573.393 391.707 571.571 392.167C570.265 392.505 569.674 393.914 570.124 395.135C570.575 396.375 572.003 397.173 573.196 397.54C574.511 397.943 577.432 397.577 577.798 397.53C577.977 398.404 578.136 399.249 578.277 400.057C578.352 400.479 578.418 400.883 578.484 401.287H579.639C579.555 400.827 579.461 400.348 579.367 399.86C579.198 398.977 578.991 398.028 578.775 397.061C578.991 396.976 580.24 396.469 581.339 395.858C582.297 396.901 584.758 398.112 585.078 398.272C584.74 399.099 584.411 399.897 584.082 400.639C583.988 400.865 583.885 401.071 583.791 401.287H585.012C585.04 401.212 585.068 401.146 585.106 401.071C585.453 400.235 585.801 399.334 586.148 398.413C586.505 398.488 589.389 399.071 590.732 398.77C591.953 398.498 593.428 397.803 593.973 396.6C594.508 395.417 594.029 393.961 592.752 393.529C590.976 392.928 588.262 394.947 587.266 396.3C587.21 396.375 586.665 397.314 586.336 397.906C586.477 397.53 586.618 397.164 586.759 396.769C587.041 395.999 587.304 395.22 587.586 394.374C587.708 393.961 587.83 393.548 587.961 393.134C588.093 392.721 588.177 392.27 588.299 391.838C588.544 390.824 588.741 389.781 588.91 388.729C589.586 388.973 592.01 389.819 593.259 389.725C594.508 389.64 596.077 389.18 596.791 388.072C597.495 386.982 597.241 385.47 596.049 384.85C594.377 383.986 591.39 385.573 590.206 386.757C590.131 386.832 589.38 387.771 588.966 388.297C589.07 387.668 589.164 387.029 589.248 386.39C589.483 384.531 589.652 382.643 589.84 380.755C589.896 380.182 589.962 379.599 590.018 379.026C590.263 379.12 593.118 380.182 594.517 380.078C595.767 379.994 597.335 379.534 598.049 378.425C598.754 377.336 598.5 375.823 597.307 375.204C595.635 374.339 592.648 375.927 591.465 377.11C591.371 377.195 590.291 378.557 590.028 378.914C590.159 377.646 590.309 376.387 590.497 375.147C590.76 373.438 591.117 371.775 591.578 370.197C591.69 370.244 594.668 371.362 596.105 371.259C597.354 371.174 598.923 370.714 599.637 369.605C600.341 368.516 600.087 367.004 598.894 366.384C597.223 365.52 594.236 367.107 593.052 368.29C592.958 368.384 591.794 369.85 591.596 370.131C591.625 370.038 591.643 369.934 591.671 369.84C592.188 368.159 592.893 366.59 593.635 365.153C594.057 364.317 594.517 363.547 594.978 362.805C595.513 363.068 597.955 364.261 599.261 364.308C600.51 364.355 602.116 364.073 602.962 363.049C603.788 362.044 603.704 360.513 602.577 359.771C601.017 358.738 597.871 359.978 596.556 361.02C596.481 361.077 595.823 361.734 595.353 362.223C595.569 361.894 595.776 361.546 595.992 361.227C596.781 360.044 597.57 359.01 598.275 358.099C598.678 357.583 599.064 357.132 599.42 356.7C600.078 356.69 602.736 356.606 603.891 356.061C605.028 355.526 606.315 354.539 606.597 353.243C606.869 351.975 606.08 350.651 604.737 350.51C602.868 350.313 600.651 352.868 599.975 354.399C599.918 354.53 599.233 356.709 599.27 356.709C599.27 356.709 599.298 356.709 599.308 356.709C598.951 357.113 598.585 357.545 598.181 358.024C597.448 358.916 596.631 359.94 595.823 361.105C595.006 362.27 594.151 363.566 593.381 365.003C592.601 366.449 591.85 367.999 591.296 369.709C591.296 369.728 591.286 369.746 591.277 369.765C591.286 369.211 591.258 367.68 591.249 367.558C591.033 365.895 589.643 362.814 587.792 362.476C586.468 362.232 585.341 363.275 585.228 364.562C585.125 365.886 586.073 367.201 587.013 368.037C588.065 368.976 590.986 369.887 591.221 369.962C590.704 371.587 590.3 373.306 589.99 375.063C589.812 376.068 589.661 377.082 589.53 378.106C589.53 377.627 589.511 377.204 589.502 377.148C589.286 375.485 587.896 372.404 586.045 372.066C584.721 371.822 583.594 372.865 583.481 374.152C583.368 375.476 584.326 376.791 585.266 377.627C586.214 378.472 588.685 379.299 589.342 379.505C589.295 379.9 589.239 380.285 589.192 380.68C588.966 382.558 588.75 384.446 588.478 386.278C588.384 386.926 588.271 387.555 588.149 388.194C588.149 387.771 588.13 387.414 588.13 387.358C587.914 385.695 586.524 382.614 584.674 382.276C583.34 382.032 582.222 383.075 582.11 384.361C581.997 385.676 582.955 387.001 583.894 387.837C584.796 388.645 587.078 389.424 587.858 389.678C587.717 390.326 587.586 390.974 587.426 391.594C587.304 392.017 587.219 392.43 587.078 392.843C586.947 393.256 586.815 393.67 586.684 394.074C586.402 394.844 586.12 395.652 585.82 396.394C585.623 396.92 585.416 397.408 585.219 397.906C585.322 397.258 585.491 395.999 585.491 395.896C585.519 394.787 585.125 392.975 584.336 391.707C584.336 391.547 584.336 391.378 584.308 391.218C584.101 389.941 582.899 388.983 581.593 389.33C579.78 389.809 578.634 392.993 578.54 394.665C578.54 394.769 578.597 395.839 578.653 396.516C578.559 396.121 578.475 395.736 578.381 395.332C578.193 394.534 577.977 393.735 577.751 392.881C577.629 392.467 577.507 392.054 577.376 391.641C577.263 391.228 577.084 390.796 576.934 390.373C576.577 389.396 576.164 388.419 575.732 387.442C576.436 387.273 578.916 386.644 579.912 385.874C580.907 385.113 581.959 383.864 581.95 382.539C581.95 381.243 580.898 380.116 579.555 380.266C577.686 380.473 576.07 383.441 575.732 385.085C575.713 385.188 575.6 386.39 575.553 387.057C575.29 386.475 575.027 385.893 574.736 385.31C573.9 383.629 573.008 381.957 572.125 380.285C571.853 379.768 571.59 379.261 571.317 378.745C571.571 378.688 574.539 378.003 575.657 377.138C576.652 376.378 577.704 375.128 577.695 373.804C577.695 372.508 576.643 371.381 575.3 371.531C573.431 371.738 571.815 374.706 571.477 376.349C571.449 376.472 571.299 378.209 571.28 378.651C570.688 377.524 570.115 376.387 569.598 375.251C568.875 373.682 568.255 372.095 567.767 370.526C567.88 370.498 570.989 369.793 572.125 368.92C573.121 368.159 574.173 366.91 574.163 365.585C574.163 364.289 573.111 363.162 571.768 363.312C569.899 363.519 568.283 366.487 567.945 368.131C567.917 368.262 567.748 370.122 567.748 370.46C567.72 370.366 567.682 370.272 567.654 370.178C567.156 368.488 566.884 366.788 566.705 365.181C566.602 364.252 566.555 363.35 566.527 362.476C567.119 362.401 569.814 362.044 570.932 361.368C572.003 360.72 573.186 359.593 573.318 358.278C573.449 356.991 572.538 355.761 571.186 355.751C569.307 355.751 567.372 358.522 566.856 360.119C566.828 360.203 566.64 361.114 566.508 361.781C566.508 361.387 566.489 360.983 566.489 360.607C566.489 359.189 566.583 357.893 566.668 356.737C566.724 356.08 566.79 355.498 566.856 354.943C567.401 354.568 569.57 353.037 570.237 351.947C570.885 350.876 571.421 349.336 570.932 348.105C570.453 346.903 569.072 346.227 567.88 346.847C566.217 347.711 565.776 351.064 566.048 352.717C566.076 352.858 566.705 355.047 566.734 355.028L566.762 355.009C566.687 355.535 566.611 356.108 566.546 356.728C566.433 357.874 566.311 359.179 566.283 360.607C566.245 362.025 566.245 363.575 566.395 365.21C566.536 366.844 566.781 368.553 567.25 370.282C567.25 370.301 567.26 370.319 567.269 370.338C566.978 369.878 566.104 368.61 566.029 368.516C564.93 367.248 562.075 365.444 560.347 366.177C559.107 366.703 558.74 368.197 559.36 369.333C559.999 370.498 561.53 371.071 562.76 371.249L562.742 371.268Z" fill="#263238"/>
<path d="M594.904 362.458C594.904 362.458 595.505 360.269 595.524 360.128C595.759 358.466 595.223 355.131 593.533 354.314C592.312 353.722 590.959 354.436 590.508 355.648C590.057 356.888 590.63 358.419 591.307 359.471C592.105 360.701 594.895 362.458 594.895 362.458H594.904Z" fill="#263238"/>
<path d="M636.89 378.35C636.11 378.688 634.203 378.651 634.194 378.651C634.175 378.651 634.607 377.401 634.645 377.326C635.067 376.453 636.392 375.006 637.463 375.147C638.242 375.251 638.674 376.03 638.496 376.763C638.317 377.514 637.547 378.068 636.89 378.36V378.35Z" fill="#263238"/>
<path d="M636.232 383.883C635.424 384.005 633.714 383.507 633.583 383.469C633.31 384.427 632.963 385.376 632.55 386.334C632.315 386.879 632.061 387.414 631.798 387.95C631.958 387.724 632.099 387.518 632.118 387.489C632.756 386.757 634.409 385.705 635.414 386.137C636.138 386.447 636.344 387.311 635.987 387.968C635.621 388.645 634.729 388.973 634.015 389.077C633.282 389.18 631.826 388.795 631.441 388.682C631.338 388.889 631.244 389.096 631.141 389.302C630.643 390.288 630.154 391.265 629.694 392.242C629.535 392.59 629.384 392.928 629.234 393.275C629.375 393.069 629.488 392.9 629.516 392.881C630.154 392.148 631.808 391.096 632.813 391.528C633.536 391.838 633.743 392.702 633.386 393.36C633.019 394.036 632.127 394.365 631.413 394.468C630.718 394.572 629.365 394.224 628.905 394.092C628.764 394.449 628.623 394.806 628.501 395.154C628.426 395.398 628.332 395.624 628.267 395.868C628.201 396.112 628.135 396.356 628.069 396.591C627.957 397.051 627.844 397.53 627.741 397.99C627.675 398.31 627.609 398.61 627.543 398.92C627.703 398.573 628.022 397.906 628.051 397.859C628.567 397.032 630.051 395.755 631.103 396.018C631.864 396.215 632.202 397.032 631.948 397.737C631.685 398.46 630.859 398.92 630.164 399.136C629.403 399.371 627.712 399.155 627.496 399.136C627.393 399.644 627.299 400.132 627.224 400.602C627.177 400.846 627.139 401.081 627.102 401.316H626.426C626.472 401.043 626.529 400.771 626.585 400.489C626.689 399.972 626.801 399.428 626.933 398.864C626.801 398.817 626.087 398.526 625.449 398.169C624.895 398.77 623.467 399.475 623.279 399.568C623.476 400.047 623.664 400.508 623.852 400.94C623.908 401.071 623.965 401.193 624.021 401.316H623.317C623.317 401.316 623.279 401.231 623.26 401.184C623.063 400.696 622.856 400.179 622.65 399.644C622.443 399.691 620.771 400.029 619.991 399.85C619.287 399.691 618.423 399.287 618.113 398.592C617.803 397.906 618.085 397.061 618.827 396.816C619.86 396.469 621.429 397.643 622.011 398.423C622.048 398.47 622.358 399.014 622.546 399.352C622.462 399.136 622.387 398.92 622.302 398.695C622.133 398.244 621.983 397.793 621.823 397.305C621.748 397.07 621.682 396.826 621.607 396.582C621.532 396.347 621.476 396.084 621.41 395.83C621.269 395.238 621.156 394.637 621.053 394.027C620.658 394.168 619.259 394.656 618.526 394.609C617.803 394.562 616.892 394.29 616.479 393.651C616.065 393.022 616.216 392.148 616.911 391.782C617.878 391.284 619.616 392.205 620.301 392.89C620.348 392.937 620.78 393.482 621.015 393.783C620.959 393.416 620.903 393.05 620.856 392.674C620.724 391.594 620.621 390.495 620.517 389.405C620.489 389.067 620.452 388.739 620.414 388.4C620.273 388.457 618.62 389.067 617.803 389.011C617.08 388.964 616.169 388.692 615.755 388.053C615.342 387.424 615.492 386.55 616.187 386.184C617.155 385.686 618.893 386.606 619.578 387.292C619.635 387.339 620.264 388.128 620.414 388.344C620.339 387.611 620.254 386.879 620.142 386.156C619.991 385.169 619.785 384.202 619.512 383.281C619.447 383.31 617.718 383.958 616.892 383.901C616.169 383.854 615.258 383.582 614.844 382.943C614.431 382.314 614.581 381.44 615.276 381.074C616.244 380.576 617.972 381.497 618.667 382.182C618.723 382.239 619.4 383.084 619.512 383.244C619.494 383.187 619.484 383.131 619.465 383.075C619.165 382.098 618.752 381.187 618.329 380.36C618.085 379.872 617.822 379.43 617.549 378.998C617.239 379.149 615.821 379.844 615.06 379.872C614.337 379.9 613.407 379.74 612.919 379.139C612.44 378.557 612.487 377.674 613.144 377.232C614.055 376.631 615.877 377.355 616.638 377.956C616.676 377.984 617.061 378.369 617.333 378.651C617.211 378.454 617.089 378.256 616.967 378.078C616.516 377.392 616.056 376.791 615.643 376.265C615.408 375.964 615.192 375.701 614.976 375.457C614.591 375.457 613.05 375.401 612.383 375.091C611.726 374.781 610.974 374.208 610.815 373.457C610.655 372.724 611.115 371.954 611.895 371.869C612.975 371.756 614.262 373.231 614.656 374.123C614.694 374.199 615.088 375.457 615.07 375.457H615.051C615.258 375.692 615.474 375.946 615.708 376.218C616.131 376.735 616.601 377.326 617.08 378.003C617.549 378.679 618.047 379.43 618.498 380.266C618.949 381.102 619.381 382.004 619.71 382.99C619.71 383 619.71 383.009 619.719 383.028C619.719 382.708 619.719 381.816 619.738 381.75C619.86 380.783 620.668 378.998 621.739 378.801C622.509 378.66 623.166 379.261 623.223 380.013C623.288 380.783 622.734 381.544 622.189 382.032C621.579 382.577 619.888 383.103 619.747 383.15C620.048 384.089 620.283 385.085 620.461 386.109C620.564 386.691 620.649 387.283 620.734 387.874C620.734 387.602 620.743 387.348 620.752 387.32C620.874 386.353 621.682 384.568 622.753 384.371C623.523 384.23 624.181 384.831 624.237 385.583C624.303 386.353 623.749 387.114 623.204 387.602C622.659 388.091 621.222 388.57 620.837 388.692C620.865 388.917 620.893 389.142 620.921 389.377C621.053 390.467 621.175 391.556 621.335 392.627C621.391 393.003 621.457 393.369 621.523 393.736C621.523 393.491 621.523 393.285 621.532 393.257C621.654 392.289 622.462 390.504 623.533 390.307C624.303 390.166 624.96 390.767 625.017 391.519C625.082 392.28 624.528 393.05 623.983 393.538C623.457 394.008 622.142 394.459 621.682 394.609C621.757 394.985 621.842 395.36 621.936 395.717C622.002 395.962 622.058 396.206 622.142 396.441C622.218 396.685 622.293 396.92 622.377 397.155C622.537 397.605 622.706 398.066 622.875 398.507C622.988 398.808 623.11 399.099 623.223 399.39C623.166 399.014 623.063 398.282 623.063 398.225C623.044 397.577 623.279 396.535 623.73 395.793C623.73 395.699 623.73 395.605 623.749 395.511C623.871 394.769 624.566 394.215 625.327 394.421C626.379 394.703 627.045 396.544 627.092 397.521C627.092 397.577 627.055 398.207 627.027 398.601C627.083 398.376 627.13 398.15 627.186 397.915C627.299 397.446 627.421 396.985 627.553 396.497C627.628 396.262 627.694 396.018 627.769 395.774C627.834 395.53 627.938 395.285 628.022 395.041C628.229 394.468 628.473 393.905 628.717 393.341C628.313 393.247 626.867 392.881 626.294 392.43C625.721 391.988 625.111 391.265 625.111 390.495C625.111 389.744 625.721 389.096 626.501 389.18C627.581 389.302 628.52 391.021 628.717 391.97C628.727 392.026 628.792 392.731 628.821 393.116C628.971 392.777 629.131 392.439 629.3 392.101C629.779 391.124 630.305 390.157 630.821 389.189C630.981 388.889 631.131 388.598 631.291 388.297C631.15 388.26 629.422 387.865 628.774 387.367C628.201 386.926 627.59 386.203 627.59 385.432C627.59 384.681 628.201 384.033 628.98 384.117C630.061 384.23 631 385.958 631.197 386.907C631.216 386.982 631.3 387.987 631.31 388.241C631.648 387.583 631.986 386.926 632.287 386.268C632.709 385.357 633.066 384.437 633.348 383.526C633.282 383.507 631.479 383.103 630.821 382.596C630.248 382.154 629.638 381.431 629.638 380.661C629.638 379.909 630.248 379.261 631.028 379.346C632.108 379.468 633.047 381.187 633.245 382.135C633.263 382.211 633.357 383.291 633.357 383.488C633.376 383.432 633.395 383.375 633.414 383.328C633.705 382.352 633.865 381.365 633.968 380.435C634.024 379.891 634.052 379.374 634.071 378.867C633.733 378.829 632.165 378.613 631.516 378.228C630.897 377.852 630.211 377.204 630.126 376.434C630.051 375.683 630.577 374.969 631.366 374.969C632.456 374.969 633.573 376.575 633.874 377.505C633.893 377.552 633.996 378.087 634.071 378.472C634.071 378.247 634.081 378.012 634.081 377.787C634.081 376.96 634.024 376.209 633.977 375.542C633.949 375.166 633.912 374.819 633.874 374.499C633.555 374.283 632.305 373.391 631.911 372.761C631.535 372.142 631.225 371.249 631.507 370.535C631.779 369.84 632.587 369.446 633.282 369.803C634.25 370.301 634.503 372.245 634.344 373.203C634.334 373.287 633.968 374.556 633.949 374.546L633.93 374.537C633.977 374.847 634.015 375.175 634.052 375.532C634.118 376.199 634.184 376.951 634.203 377.777C634.222 378.604 634.222 379.496 634.137 380.445C634.052 381.393 633.912 382.389 633.639 383.385C633.639 383.394 633.639 383.404 633.63 383.422C633.799 383.15 634.306 382.417 634.353 382.361C634.992 381.628 636.645 380.576 637.65 381.008C638.373 381.318 638.58 382.182 638.223 382.84C637.857 383.516 636.964 383.845 636.25 383.948L636.232 383.883Z" fill="#263238"/>
<path d="M617.57 378.763C617.57 378.763 617.222 377.495 617.213 377.411C617.081 376.453 617.382 374.509 618.368 374.039C619.073 373.701 619.862 374.105 620.125 374.819C620.388 375.542 620.059 376.425 619.664 377.035C619.204 377.749 617.588 378.764 617.579 378.773L617.57 378.763Z" fill="#263238"/>
<path d="M76.0176 94.0686C72.9086 95.8814 71.7344 99.4037 71.1709 101.094C70.3913 103.424 67.6768 99.5352 62.229 101.479C56.7905 103.424 56.0109 107.698 54.8462 108.862C53.6815 110.027 45.9043 113.136 45.9043 113.136H123.911" stroke="#263238" stroke-width="0.939278" stroke-linecap="round" stroke-linejoin="round"/>
<path d="M127.808 113.136H137.257C137.257 113.136 138.816 104.589 135.313 100.305C131.819 96.0317 124.041 102.25 121.712 96.0317C121.712 96.0317 114.714 85.9251 106.167 85.1455C97.6195 84.3659 94.116 90.9784 91.3921 94.4725C88.6682 97.9666 87.1184 92.9133 80.5059 92.9133" stroke="#263238" stroke-width="0.939278" stroke-linecap="round" stroke-linejoin="round"/>
<path d="M90.4733 106.195C88.886 107.669 88.6699 109.642 88.6699 109.642" stroke="#263238" stroke-width="0.939278" stroke-linecap="round" stroke-linejoin="round"/>
<path d="M120.154 99.5352C120.154 99.5352 114.716 94.0968 108.488 94.4819C102.27 94.867 104.6 102.259 101.876 104.588C99.152 106.918 96.0429 103.809 92.5488 104.974" stroke="#263238" stroke-width="0.939278" stroke-linecap="round" stroke-linejoin="round"/>
<path d="M287.262 7.87114C284.698 9.37398 283.731 12.267 283.27 13.6665C282.632 15.592 280.387 12.3797 275.897 13.9858C271.407 15.592 270.769 19.1143 269.801 20.0817C268.843 21.0398 262.428 23.604 262.428 23.604H326.768" stroke="#263238" stroke-width="0.939278" stroke-linecap="round" stroke-linejoin="round"/>
<path d="M329.971 23.604H337.767C337.767 23.604 339.054 16.5501 336.161 13.0278C333.268 9.50548 326.862 14.6339 324.936 9.50548C324.936 9.50548 319.169 1.17409 312.115 0.52599C305.061 -0.112719 302.177 5.33509 299.933 8.21867C297.688 11.1022 296.41 6.93186 290.953 6.93186" stroke="#263238" stroke-width="0.939278" stroke-linecap="round" stroke-linejoin="round"/>
<path d="M299.183 17.8744C297.878 19.0955 297.699 20.7111 297.699 20.7111" stroke="#263238" stroke-width="0.939278" stroke-linecap="round" stroke-linejoin="round"/>
<path d="M323.661 12.3797C323.661 12.3797 319.171 7.88992 314.043 8.20927C308.914 8.52863 310.84 14.6245 308.595 16.5407C306.35 18.4568 303.786 15.902 300.902 16.86" stroke="#263238" stroke-width="0.939278" stroke-linecap="round" stroke-linejoin="round"/>
<path d="M573.807 95.2709C571.243 96.7737 570.275 99.6667 569.815 101.066C569.177 102.992 566.932 99.7794 562.442 101.386C557.952 102.992 557.313 106.514 556.346 107.481C555.379 108.449 548.973 111.004 548.973 111.004H613.313" stroke="#263238" stroke-width="0.939278" stroke-linecap="round" stroke-linejoin="round"/>
<path d="M616.527 110.994H624.323C624.323 110.994 625.61 103.94 622.717 100.418C619.834 96.8958 613.418 102.024 611.493 96.8958C611.493 96.8958 605.726 88.5644 598.672 87.9163C591.618 87.2776 588.734 92.7254 586.489 95.609C584.244 98.4926 582.967 94.3222 577.51 94.3222" stroke="#263238" stroke-width="0.939278" stroke-linecap="round" stroke-linejoin="round"/>
<path d="M585.728 105.274C584.423 106.495 584.244 108.111 584.244 108.111" stroke="#263238" stroke-width="0.939278" stroke-linecap="round" stroke-linejoin="round"/>
<path d="M610.214 99.7794C610.214 99.7794 605.724 95.2897 600.596 95.609C595.467 95.9284 597.393 102.024 595.148 103.94C592.903 105.866 590.339 103.302 587.455 104.26" stroke="#263238" stroke-width="0.939278" stroke-linecap="round" stroke-linejoin="round"/>
<path d="M550.473 228.752L529.498 181.14L472.775 206.134L459.344 175.654L452.506 28.2534L494.013 9.96571L549.834 136.684L567.821 128.756L580.915 158.484L562.927 166.412L583.902 214.024L550.463 228.752H550.473ZM487.804 164.007L516.396 151.411L478.214 64.7537L487.795 164.007H487.804Z" fill="#263238" stroke="#263238" stroke-width="0.939278" stroke-miterlimit="10"/>
<path d="M545.918 230.818L524.944 183.206L468.221 208.2L454.789 177.721L447.951 30.3198L489.458 12.0321L545.279 138.75L563.266 130.822L576.36 160.551L558.373 168.478L579.347 216.09L545.909 230.818H545.918ZM483.249 166.074L511.841 153.478L473.659 66.8201L483.24 166.074H483.249Z" fill="url(#paint0_linear_289_1229)" stroke="#263238" stroke-width="0.939278" stroke-miterlimit="10"/>
<path d="M372.313 270.221C360.253 272.447 349.761 271.573 340.828 267.619C331.905 263.664 324.579 257.315 318.868 248.57C313.157 239.826 309.156 229.221 306.864 216.776L288.764 118.499C286.406 105.687 286.228 94.0968 288.257 83.7459C290.276 73.3951 294.757 64.7725 301.688 57.897C308.62 51.0215 318.286 46.4472 330.675 44.1648C342.895 41.9105 353.433 42.7747 362.281 46.7384C371.12 50.7116 378.334 57.1738 383.913 66.1251C389.492 75.0858 393.465 85.972 395.823 98.7837L413.923 197.06C416.215 209.515 416.252 220.843 414.036 231.053C411.819 241.263 407.245 249.801 400.303 256.676C393.371 263.552 384.035 268.07 372.313 270.23V270.221ZM365.531 233.401C369.993 232.584 372.933 230.452 374.351 227.014C375.769 223.585 376.417 219.687 376.295 215.32C376.173 210.962 375.779 206.97 375.121 203.363L357.322 106.711C356.589 102.747 355.537 98.6429 354.157 94.4161C352.776 90.1894 350.813 86.6859 348.249 83.8868C345.684 81.0972 342.087 80.1203 337.466 80.9751C332.835 81.8298 329.782 84.0277 328.298 87.5594C326.814 91.1005 326.185 95.083 326.401 99.5258C326.617 103.969 327.096 108.167 327.829 112.14L345.628 208.792C346.295 212.408 347.347 216.269 348.784 220.383C350.221 224.506 352.306 227.897 355.021 230.574C357.735 233.251 361.239 234.19 365.531 233.392V233.401Z" fill="#263238" stroke="#263238" stroke-width="0.939278" stroke-miterlimit="10"/>
<path d="M366.93 271.46C354.87 273.687 344.378 272.813 335.445 268.859C326.522 264.904 319.196 258.555 313.485 249.81C307.774 241.065 303.773 230.461 301.481 218.016L283.381 119.739C281.024 106.927 280.845 95.3366 282.874 84.9858C284.893 74.6349 289.374 66.0124 296.306 59.1369C303.238 52.2614 312.903 47.6871 325.292 45.4046C337.512 43.1504 348.051 44.0145 356.899 47.9783C365.737 51.9514 372.951 58.4136 378.53 67.3649C384.109 76.3256 388.083 87.2119 390.44 100.024L408.54 198.3C410.832 210.755 410.869 222.083 408.653 232.293C406.436 242.503 401.862 251.041 394.921 257.916C387.989 264.792 378.652 269.309 366.93 271.47V271.46ZM360.148 234.641C364.61 233.824 367.55 231.691 368.968 228.254C370.387 224.825 371.035 220.927 370.913 216.56C370.79 212.201 370.396 208.21 369.738 204.603L351.939 107.951C351.207 103.987 350.155 99.8827 348.774 95.656C347.393 91.4292 345.43 87.9257 342.866 85.1267C340.301 82.337 336.704 81.3602 332.083 82.2149C327.452 83.0697 324.4 85.2676 322.915 88.7992C321.431 92.3403 320.802 96.3228 321.018 100.766C321.234 105.208 321.713 109.407 322.446 113.38L340.245 210.032C340.912 213.648 341.964 217.508 343.401 221.622C344.838 225.746 346.923 229.137 349.638 231.814C352.352 234.49 355.856 235.43 360.148 234.631V234.641Z" fill="url(#paint1_linear_289_1229)" stroke="#263238" stroke-width="0.939278" stroke-miterlimit="10"/>
<path d="M156.747 246.081L168.695 195.445L108.365 181.205L116.02 148.791L199.381 27.0418L243.527 37.4584L211.723 172.226L230.857 176.744L223.399 208.36L204.266 203.842L192.318 254.478L156.757 246.081H156.747ZM145.749 156.653L176.162 163.829L197.916 71.6669L145.749 156.653Z" fill="#263238" stroke="#263238" stroke-width="0.939278" stroke-miterlimit="10"/>
<path d="M151.882 245.01L163.83 194.374L103.5 180.135L111.155 147.72L194.525 25.971L238.672 36.3876L206.868 171.155L226.001 175.673L218.543 207.289L199.41 202.771L187.462 253.408L151.901 245.01H151.882ZM140.883 155.582L171.297 162.758L193.051 70.5961L140.883 155.582Z" fill="url(#paint2_linear_289_1229)" stroke="#263238" stroke-width="0.939278" stroke-miterlimit="10"/>
<path d="M490.115 254.92C490.115 254.92 486.771 277.265 488.029 284.779C489.279 292.294 505.988 325.713 505.988 325.713V330.306L493.252 336.571L497.009 345.137L502.231 343.888L497.215 367.699L508.074 370L522.069 339.511C522.069 339.511 546.293 331.997 546.715 330.109C547.129 328.23 542.752 299.197 542.752 299.197C542.752 299.197 537.323 272.888 533.772 264.115C530.222 255.343 525.835 247.406 525.835 247.406L490.124 254.92H490.115Z" fill="#263238" stroke="#263238" stroke-width="0.939278" stroke-miterlimit="10"/>
<path d="M502.643 286.865L511.002 289.373L523.945 322.792L508.072 330.1" stroke="white" stroke-width="0.939278" stroke-miterlimit="10"/>
<path d="M519.768 340.535L505.359 343.466" stroke="white" stroke-width="0.939278" stroke-miterlimit="10"/>
<path d="M478.128 200.047L466.462 209.149L463.701 203.504L455.914 207.881C455.914 207.881 455.623 232.537 457.708 233.532C459.793 234.528 485.389 219.49 485.389 219.49C485.389 219.49 487.098 246.626 486.666 250.684C486.244 254.741 489.014 256.667 490.94 256.451C492.865 256.235 529.187 251.538 530.042 250.468C530.897 249.397 531.752 246.626 531.32 244.916C530.897 243.207 522.988 213.507 522.988 213.507C522.988 213.507 544.563 216.926 545.418 215.001C546.273 213.075 552.679 194.703 552.679 194.703L541.783 192.139L537.725 198.338C537.725 198.338 514.441 188.72 506.964 188.72C499.487 188.72 480.467 198.338 478.119 200.047H478.128Z" fill="white" stroke="#263238" stroke-width="0.939278" stroke-miterlimit="10"/>
<path d="M537.734 198.338L543.239 200.564" stroke="#263238" stroke-width="0.939278" stroke-miterlimit="10"/>
<path d="M509.686 211.666L522.996 213.507L508.428 215.686" stroke="#263238" stroke-width="0.939278" stroke-miterlimit="10"/>
<path d="M459.729 216.804L457.963 218.814" stroke="#263238" stroke-width="0.939278" stroke-miterlimit="10"/>
<path d="M466.462 209.149L461.521 214.766" stroke="#263238" stroke-width="0.939278" stroke-miterlimit="10"/>
<path d="M517.201 224.309C512.561 230.874 502.99 243.818 496.838 247.95" stroke="#263238" stroke-width="0.939278" stroke-miterlimit="10"/>
<path d="M519.906 220.392C519.906 220.392 519.418 221.115 518.572 222.346" stroke="#263238" stroke-width="0.939278" stroke-miterlimit="10"/>
<path d="M496.932 244.813C495.541 246.26 494.189 247.537 493.043 248.401" stroke="#263238" stroke-width="0.939278" stroke-miterlimit="10"/>
<path d="M505.556 234.744C505.556 234.744 501.949 239.394 498.201 243.479" stroke="#263238" stroke-width="0.939278" stroke-miterlimit="10"/>
<path d="M455.912 207.881L454.879 184.493C454.879 184.493 450.69 176.471 450.596 175.833C450.502 175.194 452.174 167.398 452.624 166.036C453.075 164.674 455.433 166.055 456.654 168.469C457.866 170.883 457.274 174.208 457.274 174.208C457.274 174.208 460.035 178.341 460.524 180.21C461.012 182.079 460.11 184.803 460.11 184.803L463.699 203.494L455.912 207.871V207.881Z" fill="white" stroke="#263238" stroke-width="0.939278" stroke-miterlimit="10"/>
<path d="M454.609 165.905C454.609 165.905 453.247 166.205 453.529 167.473C453.81 168.741 455.154 173.766 454.956 175.203" stroke="#263238" stroke-width="0.939278" stroke-miterlimit="10"/>
<path d="M541.801 191.134C541.801 191.134 558.013 163.575 559.506 162.786C561 161.988 572.337 162.288 572.337 162.288C572.337 162.288 576.714 156.221 577.315 156.916L577.916 157.611C577.916 157.611 579.503 156.718 580.001 157.216L580.499 157.714C580.499 157.714 581.589 156.822 582.19 157.113C582.791 157.413 582.791 158.306 582.791 158.306C582.791 158.306 583.984 157.611 583.683 158.907C583.383 160.203 579.701 166.562 578.217 167.464C576.723 168.356 561.507 168.356 561.507 168.356L553.251 192.824L541.81 191.134H541.801Z" fill="white" stroke="#263238" stroke-width="0.939278" stroke-miterlimit="10"/>
<path d="M577.906 157.611C577.906 157.611 574.13 164.674 573.332 165.369" stroke="#263238" stroke-width="0.939278" stroke-miterlimit="10"/>
<path d="M580.491 157.705L575.822 166.261" stroke="#263238" stroke-width="0.939278" stroke-miterlimit="10"/>
<path d="M582.781 158.306L578.301 165.867" stroke="#263238" stroke-width="0.939278" stroke-miterlimit="10"/>
<path d="M453.162 206.763L455.445 213.554L467.204 205.364L464.377 199.305L453.162 206.763Z" fill="white" stroke="#263238" stroke-width="0.939278" stroke-miterlimit="10"/>
<path d="M523.638 163.932C523.638 163.932 523.638 168.206 522.567 171.625C521.496 175.044 524.492 178.031 523.638 179.101C522.783 180.172 520.003 181.666 520.003 181.666C520.003 181.666 518.725 187.433 516.584 188.287C514.451 189.142 508.468 186.578 508.468 186.578C508.468 186.578 503.124 179.74 506.759 173.757C510.394 167.774 523.638 163.932 523.638 163.932Z" fill="white" stroke="#263238" stroke-width="0.939278" stroke-miterlimit="10"/>
<path d="M519.787 174.527C519.534 175.316 519.064 175.88 518.745 175.776C518.416 175.673 518.36 174.95 518.613 174.151C518.867 173.362 519.337 172.799 519.656 172.902C519.985 173.005 520.041 173.729 519.787 174.527Z" fill="#263238"/>
<path d="M518 170.498C518 170.498 519.249 168.722 521.1 169.793" stroke="#263238" stroke-width="0.939278" stroke-miterlimit="10"/>
<path d="M514.885 179.28C514.885 179.28 515.57 181.75 518.586 182.023" stroke="#263238" stroke-width="0.939278" stroke-miterlimit="10"/>
<path d="M528.124 153.891C528.124 153.891 530.472 159.442 527.701 163.077C524.921 166.712 517.876 166.919 513.603 172.479C509.329 178.031 511.038 185.301 512.109 187.649C513.18 189.997 511.471 198.976 508.474 200.254C505.487 201.531 500.566 202.386 501.852 205.382C503.139 208.379 504.633 213.498 503.346 216.062C502.059 218.626 493.944 223.116 487.538 220.758C481.132 218.41 481.339 213.704 483.048 210.501C484.757 207.298 481.338 208.792 477.703 203.663C474.068 198.535 469.588 189.565 475.355 185.075C481.122 180.585 485.612 179.092 486.035 174.818C486.458 170.545 484.269 160.4 489.82 156.127C495.371 151.853 498.518 152.867 498.518 152.867C498.518 152.867 503.768 147.053 509.536 147.053C515.303 147.053 517.651 150.688 517.651 150.688C517.651 150.688 524.912 144.921 528.124 153.891Z" fill="#263238" stroke="#263238" stroke-width="0.939278" stroke-miterlimit="10"/>
<path d="M540.947 188.72L539.021 193.632L552.904 198.544L554.83 190.861L540.947 188.72Z" fill="white" stroke="#263238" stroke-width="0.939278" stroke-miterlimit="10"/>
<path d="M493.25 336.571C493.25 336.571 465.795 346.199 466.124 348.19C466.453 350.172 472.915 367.558 475.554 370.366C478.194 373.175 479.358 374.837 479.856 372.517C480.354 370.197 479.687 367.389 479.687 366.224C479.687 365.059 481.012 351.825 481.509 351.158C482.007 350.501 496.998 345.128 496.998 345.128L493.241 336.562L493.25 336.571Z" fill="white" stroke="#263238" stroke-width="0.939278" stroke-miterlimit="10"/>
<path d="M477.048 352.492L473.967 343.888C469.477 345.776 466.002 347.476 466.124 348.19C466.453 350.172 472.915 367.558 475.555 370.366C478.194 373.175 479.359 374.837 479.856 372.517C480.354 370.197 479.687 367.389 479.687 366.224C479.687 365.059 481.012 351.825 481.51 351.158L477.039 352.483L477.048 352.492Z" fill="white" stroke="#263238" stroke-width="0.939278" stroke-miterlimit="10"/>
<path d="M497.213 367.689C497.213 367.689 489.37 394.712 489.623 396.187C489.877 397.662 497.353 399.991 500.218 400.799C503.092 401.616 510.372 401.325 512.307 400.536C514.251 399.747 515.472 398.178 513.95 397.615C512.429 397.051 508.212 395.99 508.212 395.99L502.069 387.921L508.071 369.991L497.213 367.689Z" fill="white" stroke="#263238" stroke-width="0.939278" stroke-miterlimit="10"/>
<path d="M513.951 397.615C512.42 397.051 508.212 395.99 508.212 395.99L502.069 387.922L500.641 391.66L491.286 388.673C490.271 392.937 489.529 395.699 489.623 396.187C489.886 397.662 497.353 399.991 500.218 400.799C503.092 401.616 510.372 401.325 512.307 400.536C514.251 399.747 515.472 398.178 513.951 397.615Z" fill="white" stroke="#263238" stroke-width="0.939278" stroke-miterlimit="10"/>
<path d="M306.833 147.542C306.833 147.542 315.146 154.981 316.358 154.981C317.569 154.981 318.781 151.346 320.688 153.938C322.594 156.53 320.688 159.48 320.688 159.48C320.688 159.48 328.305 167.792 327.094 169.342C325.882 170.892 320.171 174.189 320.171 174.189L318.959 188.729L303.377 184.399L303.208 179.036L295.074 173.672C295.074 173.672 290.743 166.402 293.693 159.301C296.633 152.2 306.852 147.532 306.852 147.532L306.833 147.542Z" fill="white" stroke="#263238" stroke-width="0.939278" stroke-miterlimit="10"/>
<path d="M306.834 147.542C306.834 147.542 298.7 154.643 299.564 155.507C300.428 156.371 304.758 157.582 304.063 158.794C303.368 160.006 301.471 163.81 301.471 163.81C301.471 163.81 304.936 165.717 304.758 166.75C304.58 167.783 303.715 168.826 303.199 168.657C302.682 168.487 297.657 166.75 297.14 169.521C296.624 172.292 298.869 174.884 300.775 175.748C302.682 176.612 305.791 174.706 305.791 174.706C305.791 174.706 303.715 178.857 303.199 179.036C302.682 179.205 293.327 175.053 289.692 173.494C286.057 171.935 282.77 169.69 283.634 165.876C284.498 162.072 285.54 157.226 288.828 154.455C292.115 151.684 294.886 148.565 294.886 148.565C294.886 148.565 290.209 145.973 293.675 144.583C297.14 143.202 300.775 144.583 300.775 144.583C300.775 144.583 299.564 140.779 302.682 141.464C305.801 142.15 307.36 144.235 306.834 147.523V147.542Z" fill="#263238" stroke="#263238" stroke-width="0.939278" stroke-miterlimit="10"/>
<path d="M320.163 174.198L314.621 177.317L319.468 180.773L320.163 174.198Z" fill="#263238" stroke="#263238" stroke-width="0.939278" stroke-miterlimit="10"/>
<path d="M309.604 153.083C309.604 153.083 306.138 153.083 306.485 156.371" stroke="#263238" stroke-width="0.939278" stroke-miterlimit="10"/>
<path d="M313.501 157.301C314.131 158.08 314.253 159.029 313.774 159.423C313.295 159.818 312.384 159.499 311.754 158.719C311.125 157.939 311.003 156.991 311.482 156.596C311.961 156.202 312.872 156.521 313.501 157.301Z" fill="#263238"/>
<path d="M294.106 380.041C294.106 380.041 294.96 388.588 295.815 389.866C296.67 391.143 304.785 395.21 306.495 396.92C308.204 398.629 304.363 399.907 302.437 400.761C300.511 401.616 298.379 401.4 294.528 400.339C290.677 399.277 287.052 396.065 284.703 394.994C282.355 393.923 276.372 392.007 276.795 390.504C277.217 389.011 284.703 376.829 284.703 376.829L294.106 380.031V380.041Z" fill="white" stroke="#263238" stroke-width="0.939278" stroke-miterlimit="10"/>
<path d="M378.283 384.315C378.283 384.315 387.685 396.497 388.324 396.704C389.865 397.211 396.167 390.307 397.398 389.302C400.967 386.362 404.207 383.065 406.772 379.196C407.824 377.599 411.017 372.16 408.415 370.432C405.194 368.281 401.277 373.335 398.59 374.49C397.097 375.129 392.823 377.054 392.823 377.054L378.293 384.315H378.283Z" fill="white" stroke="#263238" stroke-width="0.939278" stroke-miterlimit="10"/>
<path d="M302.22 270.005C302.22 270.005 302.859 280.9 303.714 282.187C304.569 283.474 307.555 293.515 307.555 293.515L300.718 332.617L283.416 375.993L295.805 381.544L320.593 335.82C320.593 335.82 329.14 313.812 329.356 313.174C329.572 312.535 378.283 384.324 378.283 384.324L388.54 377.702L356.069 306.984L340.045 268.953L302.23 270.023L302.22 270.005Z" fill="#263238" stroke="#263238" stroke-width="0.939278" stroke-miterlimit="10"/>
<path d="M283.631 368.29L281.922 377.899L295.598 383.882L300.726 376.19L283.631 368.29Z" fill="white" stroke="#263238" stroke-width="0.939278" stroke-miterlimit="10"/>
<path d="M373.578 381.957L379.139 387.517L392.815 377.045L387.686 370.639L373.578 381.957Z" fill="white" stroke="#263238" stroke-width="0.939278" stroke-miterlimit="10"/>
<path d="M301.124 187.527C301.124 187.527 295.413 208.642 296.108 214.183C296.803 219.725 294.896 272.005 294.896 272.005C294.896 272.005 307.361 275.809 321.901 274.259C336.441 272.71 344.922 269.929 344.922 269.929C344.922 269.929 330.382 212.286 327.959 205.364C325.536 198.441 319.477 190.476 319.477 190.476L301.124 187.536V187.527Z" fill="white" stroke="#263238" stroke-width="0.939278" stroke-miterlimit="10"/>
<path d="M301.639 181.985L299.385 188.738L322.754 194.797L323.449 187.01L301.639 181.985Z" fill="white" stroke="#263238" stroke-width="0.939278" stroke-miterlimit="10"/>
<path d="M355.478 265.599L360.325 266.811C360.325 266.811 362.4 263.871 363.96 263.345C365.519 262.828 367.426 263.176 369.323 263.176C371.22 263.176 372.958 260.584 374.517 261.795C376.076 263.007 373.653 264.388 372.789 264.735C371.925 265.083 367.773 265.947 367.773 265.947C367.773 265.947 377.635 268.887 378.331 268.887C379.026 268.887 377.814 270.615 376.95 271.141C376.086 271.658 373.146 271.836 373.146 271.836C373.146 271.836 368.299 273.564 365.876 273.743C363.452 273.912 357.047 271.836 357.047 271.836L353.064 270.277L350.641 269.413L355.487 265.609L355.478 265.599Z" fill="white" stroke="#263238" stroke-width="0.939278" stroke-miterlimit="10"/>
<path d="M306.655 197.051C306.655 197.051 299.385 203.626 301.291 209.684C303.198 215.743 349.073 273.733 349.073 273.733L358.597 264.735L318.612 198.094" fill="white"/>
<path d="M306.655 197.051C306.655 197.051 299.385 203.626 301.291 209.684C303.198 215.743 349.073 273.733 349.073 273.733L358.597 264.735L318.612 198.094" stroke="#263238" stroke-width="0.939278" stroke-miterlimit="10"/>
<path d="M314.824 294.153L328.284 311.455" stroke="white" stroke-width="0.939278" stroke-miterlimit="10"/>
<path d="M115.037 151.9C115.037 151.9 109.467 157.338 109.054 160.729C108.65 164.129 103.888 178.265 105.522 180.98C107.156 183.694 115.854 189.133 115.854 189.133C115.854 189.133 105.25 191.847 106.067 197.427C106.884 202.997 110.688 203.541 110.688 203.541C110.688 203.541 102.122 208.567 104.977 212.239C107.833 215.912 114.624 215.367 115.713 212.371C116.803 209.384 114.765 205.58 114.765 205.58C114.765 205.58 120.203 203.945 121.556 201.635C122.917 199.324 122.504 197.154 122.504 197.154C122.504 197.154 127.257 197.972 130.112 195.933C132.968 193.895 134.189 187.508 134.189 187.508C134.189 187.508 144.248 181.797 147.78 172.555C151.312 163.312 150.091 159.508 147.78 156.653C145.47 153.797 128.619 145.372 123.453 146.462C118.287 147.551 115.028 151.9 115.028 151.9H115.037Z" fill="#263238" stroke="#263238" stroke-width="0.939278" stroke-miterlimit="10"/>
<path d="M126.589 186.287L129.304 198.93L143.299 190.777L139.495 185.338C139.495 185.338 129.849 188.597 126.58 186.287H126.589Z" fill="white" stroke="#263238" stroke-width="0.939278" stroke-miterlimit="10"/>
<path d="M125.773 159.79L117.207 174.875C117.207 174.875 120.335 181.807 122.232 183.976C124.13 186.146 126.45 188.87 132.837 189.546C139.224 190.222 143.028 183.976 143.3 179.9C143.573 175.823 139.224 163.725 139.224 163.725L125.773 159.781V159.79Z" fill="white" stroke="#263238" stroke-width="0.939278" stroke-miterlimit="10"/>
<path d="M118.298 176.227C118.298 176.227 114.222 174.593 115.171 177.993C116.119 181.393 120.468 181.393 120.468 181.393L118.289 176.227H118.298Z" fill="white" stroke="#263238" stroke-width="0.939278" stroke-miterlimit="10"/>
<path d="M140.314 167.257C140.314 167.257 140.859 164.947 142.897 166.308C144.936 167.67 142.221 172.696 142.221 172.696L140.314 167.257Z" fill="white" stroke="#263238" stroke-width="0.939278" stroke-miterlimit="10"/>
<path d="M129.713 174.602L131.479 178.679L134.203 177.589" stroke="#263238" stroke-width="0.939278" stroke-miterlimit="10"/>
<path d="M129.438 181.534C129.438 181.534 135.007 183.976 137.187 178.002" stroke="#263238" stroke-width="0.939278" stroke-miterlimit="10"/>
<path d="M133.385 171.747C133.385 171.747 135.151 169.436 137.461 170.113" stroke="#263238" stroke-width="0.939278" stroke-miterlimit="10"/>
<path d="M130.527 166.581C130.527 166.581 132.706 163.866 135.966 164.815" stroke="#263238" stroke-width="0.939278" stroke-miterlimit="10"/>
<path d="M125.634 168.347C125.634 168.347 121.83 166.712 120.195 171.061" stroke="#263238" stroke-width="0.939278" stroke-miterlimit="10"/>
<path d="M126.488 174.321C126.835 175.025 126.732 175.786 126.262 176.021C125.793 176.255 125.126 175.87 124.778 175.156C124.431 174.443 124.534 173.691 125.004 173.456C125.473 173.222 126.14 173.607 126.488 174.321Z" fill="#263238"/>
<path d="M193.373 163.744C193.373 163.744 201.141 158.475 201.695 157.921C202.249 157.367 205.574 155.15 207.105 153.901C208.627 152.651 209.05 148.49 210.712 149.185C212.375 149.881 212.788 151.543 212.234 152.792C211.68 154.042 208.909 156.258 208.909 156.258C208.909 156.258 216.536 154.737 216.949 155.563C217.362 156.399 217.362 158.203 216.808 158.888C216.254 159.574 215.559 160.41 215.559 160.41C215.559 160.41 215.005 165.125 214.169 166.647C213.333 168.168 210.149 169.145 207.932 169.145C205.715 169.145 201.141 169.699 201.141 169.699L196.012 171.775L193.373 163.735V163.744Z" fill="white" stroke="#263238" stroke-width="0.939278" stroke-miterlimit="10"/>
<path d="M125.53 247.603L125.164 253.943L164.858 250.317L163.045 244.522L125.53 247.603Z" fill="white" stroke="#263238" stroke-width="0.939278" stroke-miterlimit="10"/>
<path d="M128.689 196.581C128.689 196.581 121.776 200.63 119.944 203.767C118.113 206.904 103.742 229.898 104.784 232.509C105.827 235.12 110.533 238.257 112.627 238.257C114.722 238.257 133.273 241.131 133.273 241.131L130.352 199.446L128.689 196.572V196.581Z" fill="white" stroke="#263238" stroke-width="0.939278" stroke-miterlimit="10"/>
<path d="M124.122 228.329C124.122 228.329 118.111 233.035 112.889 234.34" stroke="#263238" stroke-width="0.939278" stroke-miterlimit="10"/>
<path d="M122.967 229.465C122.967 229.465 120.929 233.777 118.299 235.458" stroke="#263238" stroke-width="0.939278" stroke-miterlimit="10"/>
<path d="M193.377 163.744C193.377 163.744 132.08 193.98 127.647 196.055C123.213 198.131 118.63 207.843 119.738 215.47C120.846 223.097 126.116 231.419 126.529 232.668C126.942 233.918 125.139 244.315 124.726 246.26C124.312 248.204 124.444 249.726 126.247 250.562C128.051 251.398 162.306 246.682 163.555 245.987C164.805 245.292 165.913 243.63 165.077 240.718C164.241 237.806 160.775 230.179 160.775 229.484C160.775 228.789 154.811 209.788 154.811 209.788C154.811 209.788 182.82 186.071 186.013 182.192C189.207 178.312 195.998 171.794 195.998 171.794L193.359 163.754L193.377 163.744Z" fill="white" stroke="#263238" stroke-width="0.939278" stroke-miterlimit="10"/>
<path d="M135.405 231.823C134.221 232.931 133.179 233.805 132.361 234.331" stroke="#263238" stroke-width="0.939278" stroke-miterlimit="10"/>
<path d="M137.873 221.81C145.509 216.86 154.827 209.788 154.827 209.788C154.827 209.788 144.843 222.271 137.629 229.635" stroke="#263238" stroke-width="0.939278" stroke-miterlimit="10"/>
<path d="M129.309 226.422C130.642 226.103 132.934 224.882 135.621 223.229" stroke="#263238" stroke-width="0.939278" stroke-miterlimit="10"/>
<path d="M143.313 228.648C143.313 228.648 138.88 233.363 137.076 234.613" stroke="#263238" stroke-width="0.939278" stroke-miterlimit="10"/>
<path d="M158.079 202.94C157.346 203.908 156.623 204.725 155.928 205.345" stroke="#263238" stroke-width="0.939278" stroke-miterlimit="10"/>
<path d="M168.691 183.3C168.691 183.3 164.408 193.313 159.984 200.216" stroke="#263238" stroke-width="0.939278" stroke-miterlimit="10"/>
<path d="M189.91 165.548L193.376 174.565" stroke="#263238" stroke-width="0.939278" stroke-miterlimit="10"/>
<path d="M143.103 345.1L135.673 373.917L130.958 381.168L127.877 391.5L134.217 394.581C134.217 394.581 137.664 391.134 139.655 393.134C141.647 395.126 141.835 398.573 141.835 398.573C141.835 398.573 151.443 401.475 153.435 401.287C155.426 401.109 158.507 401.654 158.873 400.743C159.239 399.841 159.418 392.947 158.507 392.045C157.878 391.416 151.293 389.302 147.085 385.705C145.254 384.127 143.863 379.346 143.638 379.177C142.915 378.632 158.497 347.101 158.497 347.101L143.093 345.109L143.103 345.1Z" fill="white" stroke="#263238" stroke-width="0.939278" stroke-miterlimit="10"/>
<path d="M158.873 400.733C159.239 399.832 159.418 392.937 158.506 392.036C157.877 391.406 151.293 389.293 147.085 385.695C145.253 384.117 143.863 379.336 143.638 379.167C143.563 379.111 143.666 378.726 143.891 378.097L135.128 374.734L130.948 381.159L127.867 391.491L134.207 394.572C134.207 394.572 137.654 391.124 139.646 393.125C141.637 395.116 141.825 398.563 141.825 398.563C141.825 398.563 151.434 401.466 153.425 401.278C155.416 401.1 158.497 401.644 158.863 400.733H158.873Z" fill="#263238" stroke="#263238" stroke-width="0.939278" stroke-miterlimit="10"/>
<path d="M170.652 336.224L188.395 380.501C188.395 380.501 187.249 387.189 188.395 388.983C189.54 390.777 192.142 397.305 192.142 397.305L201.601 395.022C201.601 395.022 200.784 391.763 203.395 391.923C206.006 392.083 207.96 393.228 207.96 393.228C207.96 393.228 215.624 389.152 217.907 387.846C220.189 386.541 221.335 384.747 221.166 384.099C221.006 383.451 218.724 378.388 216.113 378.876C213.501 379.365 208.608 381.487 206.166 381.487C203.724 381.487 198.332 379.693 197.196 377.74C196.05 375.786 188.404 342.94 188.404 342.94L186.225 327.169L178.429 300.531L170.633 336.233L170.652 336.224Z" fill="white" stroke="#263238" stroke-width="0.939278" stroke-miterlimit="10"/>
<path d="M221.175 384.08C221.015 383.432 218.733 378.369 216.122 378.857C213.51 379.346 208.617 381.469 206.175 381.469C203.732 381.469 198.341 379.675 197.204 377.721C197.092 377.524 196.913 377.026 196.688 376.293L188.14 379.862L188.394 380.482C188.394 380.482 187.248 387.17 188.394 388.964C189.54 390.758 192.142 397.286 192.142 397.286L201.6 395.004C201.6 395.004 200.783 391.744 203.394 391.904C206.006 392.064 207.959 393.21 207.959 393.21C207.959 393.21 215.624 389.133 217.906 387.828C220.189 386.522 221.335 384.728 221.165 384.08H221.175Z" fill="#263238" stroke="#263238" stroke-width="0.939278" stroke-miterlimit="10"/>
<path d="M125.164 253.943L113.207 348.181C113.207 348.181 128.79 350.172 146.73 349.627C164.67 349.082 169.385 348.359 169.385 348.359L178.628 305.406L188.415 342.921L192.942 341.474C192.942 341.474 187.87 311.032 184.968 304.504C182.066 297.976 164.849 250.317 164.849 250.317L125.164 253.943Z" fill="#263238" stroke="#263238" stroke-width="0.939278" stroke-miterlimit="10"/>
<defs>
<linearGradient id="paint0_linear_289_1229" x1="447.951" y1="121.425" x2="579.347" y2="121.425" gradientUnits="userSpaceOnUse">
<stop stop-color="#52A36C"/>
<stop offset="1" stop-color="#1A472A"/>
</linearGradient>
<linearGradient id="paint1_linear_289_1229" x1="281.473" y1="158.421" x2="410.288" y2="158.421" gradientUnits="userSpaceOnUse">
<stop stop-color="#52A36C"/>
<stop offset="1" stop-color="#1A472A"/>
</linearGradient>
<linearGradient id="paint2_linear_289_1229" x1="103.5" y1="139.689" x2="238.672" y2="139.689" gradientUnits="userSpaceOnUse">
<stop stop-color="#52A36C"/>
<stop offset="1" stop-color="#1A472A"/>
</linearGradient>
</defs>
</svg>
