<svg width="250" height="80" viewBox="0 0 250 80" fill="none" xmlns="http://www.w3.org/2000/svg">
<g clip-path="url(#clip0_220_7090)">
<path d="M128.623 5.02192C137.028 5.02192 145.507 10.7104 145.507 23.4194C145.507 36.1284 136.066 41.4387 127.23 41.4387C125.833 41.4387 124.502 41.2988 123.48 41.0442C123.189 40.9705 122.891 40.9331 122.591 40.9331C121.831 40.9331 121.125 41.1653 120.531 41.5772V10.9439C120.531 6.88314 121.088 5.94316 121.333 5.72346C121.621 5.46257 122.575 5.13676 125.486 5.06186H125.536C126.442 5.02316 127.452 5.02317 128.622 5.02317L128.623 5.02192ZM160.149 20.8729C160.149 39.9757 144.289 49.9708 128.623 49.9708C126.506 49.9708 124.017 49.8834 121.586 49.2368C121.205 49.1457 120.852 48.9984 120.533 48.8036V69.1447C120.533 73.0831 121.192 73.4838 121.673 73.7772C123.55 74.9194 128.754 75.0667 133.079 75.0667C135.223 75.0667 136.838 76.8455 136.838 79.2036C136.838 79.412 136.82 79.6143 136.797 79.8127H249.411L171.949 0.375732H148.614C156.024 4.37904 160.149 11.4444 160.149 20.8729ZM61.5626 0.375732C61.6662 0.536764 61.7698 0.699043 61.8697 0.857577C62.5126 1.87619 63.3115 3.14322 64.7208 4.87212L107.047 57.4831V10.6855C107.047 8.08276 106.799 6.61974 106.289 6.21529C105.111 5.28156 100.585 5.28156 99.0966 5.28156C97.2803 5.28156 95.4428 3.86099 95.4428 1.14469C95.4428 0.875054 95.4653 0.6204 95.5003 0.376981H61.5626V0.375732Z" fill="url(#paint0_linear_220_7090)"/>
<path d="M41.9893 0.378213C44.3373 0.35824 45.6306 0.478077 45.9689 0.49805V2.12958C45.7105 2.10961 44.5758 2.04969 41.9893 1.91113C37.8512 1.69268 30.9655 1.55287 26.1907 2.48785C25.2358 2.66635 21.2961 3.10451 19.7433 4.97446C17.8333 7.32252 18.3701 11.2422 18.3701 12.2571V68.1211C18.3701 69.136 17.8333 73.0557 19.7433 75.4037C21.2949 77.2737 25.2345 77.7118 26.1907 77.8904C30.9655 78.8253 37.4729 78.6543 41.611 78.4359C44.1975 78.2961 45.7105 78.2686 45.9689 78.2486V79.8801C45.6306 79.9001 43.9591 79.9875 41.611 79.9675C34.07 79.9276 19.0068 79.6217 14.9285 79.6217C9.45722 79.6217 4.36289 80 0.283433 80C-0.0948032 80 -0.0948032 78.4683 0.283433 78.4683C9.95405 78.4683 11.6255 76.9566 11.6255 69.694V10.6855C11.6255 3.42282 9.95405 1.90988 0.283433 1.90988C-0.0948032 1.90988 -0.0948032 0.378213 0.283433 0.378213C4.36289 0.378213 9.45597 0.756449 14.9285 0.756449C19.008 0.756449 34.4483 0.418159 41.9893 0.378213ZM77.3088 39.8134C77.3088 38.7785 77.2689 37.7636 77.189 36.7488C76.0355 21.5869 66.2251 9.17126 50.8048 3.4403V5.4301C50.9246 5.52996 51.0432 5.62858 51.1631 5.72844V7.06163C52.138 7.65832 53.073 8.31492 53.968 9.03145V8.39482C54.6046 9.03145 55.3611 9.92648 56.1176 10.8228L56.1975 10.9226C58.6454 13.1708 60.7738 15.7973 62.5451 18.722L62.605 18.8219C66.4248 25.1895 68.5744 32.9489 68.7529 41.4249C68.4746 54.4972 63.52 66.5158 55.0041 73.8783C53.6909 75.013 52.2778 76.0466 50.8061 76.9429V79.4295C52.9744 78.6331 55.0241 77.6781 56.954 76.6246C69.7279 69.6603 77.3088 57.4232 77.3088 43.0577C77.3088 42.501 77.3088 41.9629 77.2689 41.4262C77.3088 40.9094 77.3088 40.3714 77.3088 39.8146V39.8134Z" fill="#B3B3B3"/>
<path d="M62.1069 7.00173C58.1673 2.16705 58.4257 0.375732 56.2574 0.375732C55.2425 0.375732 52.9344 0.634131 50.5264 0.634131C49.1932 0.634131 47.6017 0.55424 45.9701 0.49557C45.7317 0.475597 45.512 0.475597 45.2736 0.455624C44.8953 0.435651 44.5171 0.435651 44.1588 0.415678C43.6021 0.395705 43.0441 0.375732 42.5073 0.375732H41.9905C41.4937 0.375732 41.4937 1.9074 41.9905 1.9074C42.2889 1.9074 42.5872 1.9074 42.8856 1.94735C43.0241 1.94735 43.1639 1.96732 43.2838 1.98729C45.5919 2.20574 48.0386 3.14072 50.8048 5.43011C50.9246 5.52998 51.0432 5.62859 51.1631 5.72846V66.7143C51.1631 74.5536 49.3917 77.798 43.5821 78.3348C43.5022 78.3547 43.4236 78.3547 43.3437 78.3547C42.8069 78.4146 42.229 78.4346 41.6123 78.4346C41.2341 78.4346 41.2341 79.9663 41.6123 79.9663C42.2889 79.9663 43.0054 79.9463 43.7219 79.9463C44.4584 79.9263 45.1949 79.9064 45.9701 79.8664C48.1197 79.7865 50.4266 79.7066 52.8146 79.7066C57.0126 79.7066 60.4554 79.965 63.6386 79.965C64.1554 79.965 64.1554 78.4334 63.6386 78.4334C60.6539 78.4334 58.4656 77.8966 56.9527 76.6233C56.1176 75.9468 55.461 75.0317 55.0028 73.8771C54.2863 72.1057 53.968 69.7377 53.968 66.7143V8.39483C54.6046 9.03147 55.3611 9.9265 56.1176 10.8228L56.1975 10.9226L62.5451 18.722L62.605 18.8219L77.1902 36.7488L109.126 76.0266C110.14 74.6935 110.419 72.6637 110.419 69.6391V67.0526L62.1069 7.00173Z" fill="#909090"/>
<path d="M148.879 23.4194C148.879 9.55074 139.707 1.65148 128.623 1.65148C127.429 1.65148 126.375 1.65148 125.4 1.69142C122.335 1.77131 120.325 2.08963 119.072 3.22309C117.659 4.49636 117.162 6.7845 117.162 10.9438V69.1447C117.162 76.7856 119.212 78.4371 133.081 78.4371C133.597 78.4371 133.597 79.9688 133.081 79.9688C127.947 79.9688 122.137 79.7503 115.212 79.7104H113.859C113.282 79.7104 112.704 79.7104 112.148 79.7303C107.293 79.7703 102.717 79.9688 99.0954 79.9688C98.7172 79.9688 98.7172 78.4371 99.0954 78.4371C104.786 78.4371 107.711 77.9403 109.124 76.0291C110.139 74.6959 110.418 72.6662 110.418 69.6415V10.6854C110.418 3.42282 108.766 1.91112 99.0954 1.91112C98.7172 1.91112 98.7172 0.379456 99.0954 0.379456C100.269 0.379456 101.523 0.419402 102.857 0.459348C105.741 0.559212 108.985 0.717746 112.407 0.737719C112.846 0.757692 113.302 0.757692 113.741 0.757692H113.939C114.217 0.757692 114.476 0.757692 114.774 0.737719C115.053 0.737719 115.311 0.717747 115.611 0.717747C119.868 0.577937 125.718 0.0012207 131.569 0.0012207C145.577 0.0012207 156.78 6.10917 156.78 20.8741C156.78 38.8409 141.498 46.6016 128.624 46.6016C126.336 46.6016 124.306 46.4818 122.396 45.965C121.76 45.8451 122.138 44.1737 122.655 44.3135C124.166 44.6917 125.838 44.8103 127.231 44.8103C138.433 44.8103 148.879 38.0645 148.879 23.4206V23.4194Z" fill="#5E5E5E"/>
</g>
<defs>
<linearGradient id="paint0_linear_220_7090" x1="61.5626" y1="40.0942" x2="249.411" y2="40.0942" gradientUnits="userSpaceOnUse">
<stop stop-color="#52A36C"/>
<stop offset="1" stop-color="#1A472A"/>
</linearGradient>
<clipPath id="clip0_220_7090">
<rect width="249.411" height="80" fill="white"/>
</clipPath>
</defs>
</svg>
